<?xml version="1.0" standalone="no"?>
<!DOCTYPE svg PUBLIC "-//W3C//DTD SVG 20010904//EN"
 "http://www.w3.org/TR/2001/REC-SVG-20010904/DTD/svg10.dtd">
<svg version="1.0" xmlns="http://www.w3.org/2000/svg"
 width="219.000000pt" height="230.000000pt" viewBox="0 0 219.000000 230.000000"
 preserveAspectRatio="xMidYMid meet">

<g transform="translate(0.000000,230.000000) scale(0.100000,-0.100000)"
fill="#000000" stroke="none">
<path d="M900 2176 c-330 -70 -609 -296 -738 -600 -59 -142 -76 -231 -76 -401
0 -122 4 -167 22 -239 97 -387 401 -681 787 -761 106 -22 295 -22 399 0 483
102 816 513 816 1004 -1 336 -167 649 -446 842 -70 48 -223 117 -309 140 -102
27 -356 35 -455 15z m318 -231 c67 -16 137 -48 189 -88 18 -13 118 -113 223
-222 215 -224 245 -269 244 -367 -1 -68 -39 -154 -86 -193 -32 -27 -120 -75
-137 -75 -14 0 -51 73 -51 100 0 11 9 29 20 40 26 26 25 51 -1 103 -55 106
-207 205 -379 247 -144 34 -264 22 -414 -40 -107 -45 -188 -107 -236 -182 -51
-77 -52 -113 -8 -150 l32 -26 -23 -50 -24 -51 -48 18 c-65 25 -135 85 -170
145 -23 41 -29 63 -29 111 0 90 29 142 162 286 200 216 310 316 385 351 123
58 232 71 351 43z m-124 -481 c17 -44 9 -50 -73 -62 -43 -6 -101 -20 -129 -30
-57 -22 -72 -16 -72 30 0 32 16 41 115 63 87 19 151 19 159 -1z m183 -15 c63
-20 103 -57 103 -92 0 -14 -6 -13 -43 3 -41 18 -88 30 -178 45 -33 5 -37 9
-41 41 l-4 36 50 -6 c28 -4 79 -16 113 -27z m-463 -97 c4 -6 -12 -23 -36 -40
-24 -17 -63 -51 -88 -76 -24 -25 -50 -46 -57 -46 -21 0 -34 36 -23 65 11 29
80 95 143 137 l42 28 6 -28 c3 -16 9 -34 13 -40z m626 -2 c5 -10 14 -31 20
-45 l10 -26 -28 20 c-16 11 -33 36 -39 55 -10 33 -10 35 8 26 10 -6 23 -19 29
-30z m-144 -10 c77 -26 172 -94 205 -146 24 -39 94 -201 131 -304 54 -148 -18
-304 -174 -379 -91 -43 -172 -60 -328 -67 -281 -13 -476 64 -558 221 -22 42
-26 63 -27 130 0 74 3 87 46 180 26 55 54 121 63 147 73 200 380 305 642 218z
m207 -80 c3 -11 1 -18 -4 -14 -5 3 -9 12 -9 20 0 20 7 17 13 -6z m-886 -90
c13 0 14 -3 6 -11 -17 -17 -43 -3 -43 23 1 20 2 21 11 6 5 -10 17 -18 26 -18z"/>
<path d="M817 1163 c-52 -58 -8 -176 53 -143 44 23 53 90 19 134 -24 30 -49
33 -72 9z"/>
<path d="M1304 1159 c-29 -32 -26 -105 5 -130 29 -23 33 -23 61 -1 32 26 38
90 10 125 -26 32 -50 34 -76 6z"/>
<path d="M1185 1058 c-7 -15 -17 -22 -30 -20 -38 6 -80 5 -101 -2 -16 -6 -27
-2 -43 15 -11 13 -21 18 -21 12 0 -5 9 -18 20 -28 18 -16 25 -17 55 -6 25 9
40 9 54 2 42 -23 87 -3 79 34 -2 12 -5 11 -13 -7z"/>
</g>
</svg>
